<?xml version="1.0" standalone="no"?>
<!DOCTYPE svg PUBLIC "-//W3C//DTD SVG 20010904//EN"
 "http://www.w3.org/TR/2001/REC-SVG-20010904/DTD/svg10.dtd">
<svg version="1.0" xmlns="http://www.w3.org/2000/svg"
 width="220.000000pt" height="220.000000pt" viewBox="0 0 220.000000 220.000000"
 preserveAspectRatio="xMidYMid meet">

<g transform="translate(0.000000,220.000000) scale(0.100000,-0.100000)"
fill="#000000" stroke="none">
<path d="M916 1454 c-13 -13 -16 -45 -16 -195 l0 -179 -50 0 c-49 0 -50 -1
-50 -30 l0 -30 525 0 525 0 0 30 c0 29 -1 30 -50 30 l-50 0 0 178 c0 161 -2
181 -18 195 -17 15 -60 17 -410 17 -342 0 -393 -2 -406 -16z m784 -171 c-1
-130 -1 -137 -16 -112 -32 51 -111 89 -184 89 -46 0 -132 -41 -156 -74 l-20
-27 -40 38 c-85 81 -209 83 -295 6 l-39 -35 0 126 0 126 375 0 375 0 0 -137z
m-457 -111 c15 -15 31 -42 36 -60 l10 -32 -155 0 -154 0 6 28 c10 42 66 94
111 101 54 10 113 -5 146 -37z m355 16 c33 -20 62 -64 62 -93 0 -13 -21 -15
-150 -15 -167 0 -170 2 -130 67 42 69 139 88 218 41z"/>
<path d="M340 865 l0 -35 145 0 145 0 0 35 0 35 -145 0 -145 0 0 -35z"/>
<path d="M800 860 c0 -29 2 -30 45 -30 l45 0 0 -45 c0 -43 1 -45 30 -45 29 0
30 2 30 45 l0 45 375 0 375 0 0 -45 c0 -43 1 -45 30 -45 29 0 30 2 30 45 l0
45 45 0 c43 0 45 1 45 30 l0 30 -525 0 -525 0 0 -30z"/>
</g>
</svg>
